<?xml version="1.0" encoding="UTF-8"?> <!-- Generator: Adobe Illustrator 23.0.3, SVG Export Plug-In . SVG Version: 6.00 Build 0) --> <svg xmlns="http://www.w3.org/2000/svg" xmlns:xlink="http://www.w3.org/1999/xlink" id="Layer_1" x="0px" y="0px" viewBox="0 0 100.3 100.3" style="enable-background:new 0 0 100.3 100.3;" xml:space="preserve"> <style type="text/css"> .st0{fill:#003E6A;} </style> <g> <path class="st0" d="M38.4,45.1c4.1,0,8.1,0.9,11.7,2.7c0.7,0.4,1.6,0,2-0.7c0.4-0.7,0-1.6-0.7-2c-4.1-2-8.5-3-13-3 c-16.6,0-30.1,13.5-30.1,30.1c0,0.8,0.7,1.5,1.5,1.5h26c0.8,0,1.5-0.7,1.5-1.5s-0.7-1.5-1.5-1.5H11.4C12.1,56.5,24,45.1,38.4,45.1z "></path> <path class="st0" d="M37.9,39.5c9.6,0,17.4-7.8,17.4-17.4c0-9.6-7.8-17.4-17.4-17.4c-9.6,0-17.4,7.8-17.4,17.4 C20.5,31.7,28.3,39.5,37.9,39.5z M37.9,7.6c8,0,14.4,6.5,14.4,14.4c0,8-6.5,14.4-14.4,14.4c-8,0-14.4-6.5-14.4-14.4 C23.5,14.1,30,7.6,37.9,7.6z"></path> <path class="st0" d="M87.2,53.7H51.5c-2.8,0-5.1,2.3-5.1,5.1v21.7c0,2.8,2.3,5.1,5.1,5.1h3.9v8.7c0,0.6,0.4,1.1,0.9,1.4 c0.2,0.1,0.4,0.1,0.6,0.1c0.4,0,0.7-0.1,1-0.4l10.7-9.8h18.6c2.8,0,5.1-2.3,5.1-5.1V58.9C92.3,56,90,53.7,87.2,53.7z M89.3,80.6 c0,1.2-1,2.1-2.1,2.1H68c-0.4,0-0.7,0.1-1,0.4L58.3,91v-6.8c0-0.8-0.7-1.5-1.5-1.5h-5.4c-1.2,0-2.1-1-2.1-2.1V58.9 c0-1.2,1-2.1,2.1-2.1h35.7c1.2,0,2.1,1,2.1,2.1V80.6z"></path> <path class="st0" d="M60.3,66.8c-1.1,0-2,0.9-2,2c0,1.1,0.9,2,2,2c1.1,0,2-0.9,2-2C62.3,67.7,61.4,66.8,60.3,66.8z"></path> <path class="st0" d="M70.3,66.8c-1.1,0-2,0.9-2,2c0,1.1,0.9,2,2,2c1.1,0,2-0.9,2-2C72.3,67.7,71.4,66.8,70.3,66.8z"></path> <path class="st0" d="M79.3,66.8c-1.1,0-2,0.9-2,2c0,1.1,0.9,2,2,2c1.1,0,2-0.9,2-2C81.3,67.7,80.4,66.8,79.3,66.8z"></path> </g> </svg> 