<?xml version="1.0" encoding="UTF-8"?> <!-- Generator: Adobe Illustrator 23.0.3, SVG Export Plug-In . SVG Version: 6.00 Build 0) --> <svg xmlns="http://www.w3.org/2000/svg" xmlns:xlink="http://www.w3.org/1999/xlink" id="Layer_1" x="0px" y="0px" viewBox="0 0 100 100" style="enable-background:new 0 0 100 100;" xml:space="preserve"> <style type="text/css"> .st0{fill:#003E6A;} </style> <title>Artboard 6</title> <path class="st0" d="M84.8,75.5L56.3,45.9l17.5-17.5l3.2,3.2c0.3,0.3,0.7,0.4,1.1,0.4h0.2c0.5-0.1,0.9-0.3,1.1-0.7l6.5-10.4 c0.4-0.6,0.3-1.4-0.2-1.9L81,14.4c-0.5-0.5-1.3-0.6-1.9-0.2l-10.4,6.5c-0.7,0.4-0.9,1.4-0.5,2.1c0.1,0.1,0.1,0.2,0.2,0.3l3.2,3.2 L54.2,43.7L40.8,29.9c3.4-7.8-0.2-16.8-7.9-20.2C29.7,8.3,26.1,8.1,22.8,9c-0.8,0.2-1.3,1-1,1.8c0.1,0.2,0.2,0.5,0.4,0.6l6.2,6.5 l-1.6,5.7l-5.8,1.5l-6.2-6.4c-0.6-0.6-1.5-0.6-2.1,0c-0.2,0.2-0.3,0.4-0.4,0.6c-1.6,5.4-0.3,11.2,3.6,15.2 c4.3,4.5,10.8,5.9,16.6,3.6l12.9,13.4l-8,8l-2.1-2.1c-0.6-0.6-1.5-0.6-2.1,0L12.4,78c-0.6,0.6-0.6,1.5,0,2.1l6.4,6.4 c0.6,0.6,1.5,0.6,2.1,0L41.6,66c0.6-0.6,0.6-1.5,0-2.1l-2.1-2.2l8-8l29,30c1.1,1.1,2.6,1.8,4.1,1.8h0.1c1.5,0,3-0.6,4.1-1.7 C87.1,81.5,87.1,77.8,84.8,75.5z M79.7,17.4l2.9,2.9l-4.9,7.8l-5.8-5.8L79.7,17.4z M19.9,83.4l-4.3-4.3l18.5-18.5l4.3,4.3L19.9,83.4 z M82.6,81.7c-0.5,0.5-1.3,0.8-2.1,0.8c-0.8,0-1.5-0.3-2-0.9L33.8,35.3c-0.5-0.5-1.1-0.6-1.7-0.3c-4.8,2.3-10.4,1.2-14.1-2.5 c-2.5-2.6-3.7-6-3.4-9.6l4.8,5c0.4,0.4,0.9,0.5,1.5,0.4l7.4-1.9c0.5-0.1,0.9-0.5,1.1-1l2.1-7.4c0.1-0.5,0-1.1-0.4-1.5l-4.8-5 c6.8-0.3,12.6,5,12.9,11.8c0.1,2.2-0.4,4.3-1.4,6.2c-0.3,0.6-0.2,1.2,0.2,1.7l44.7,46.3C83.8,78.7,83.8,80.6,82.6,81.7L82.6,81.7z"></path> </svg> 