<?xml version="1.0" encoding="UTF-8"?> <!-- Generator: Adobe Illustrator 23.0.3, SVG Export Plug-In . SVG Version: 6.00 Build 0) --> <svg xmlns="http://www.w3.org/2000/svg" xmlns:xlink="http://www.w3.org/1999/xlink" id="Layer_1" x="0px" y="0px" viewBox="0 0 100.4 100.4" style="enable-background:new 0 0 100.4 100.4;" xml:space="preserve"> <style type="text/css"> .st0{fill:#003E6A;} </style> <path class="st0" d="M78.7,28l-11.2-0.1v-7.4c0-9.7-7.9-17.6-17.6-17.6c-9.7,0-17.6,7.9-17.6,17.6v7l-10.8-0.1 c-0.4,0-0.8,0.2-1.1,0.4c-0.3,0.3-0.4,0.7-0.4,1.1v66.8c0,0.8,0.7,1.5,1.5,1.5h57.3c0.8,0,1.5-0.7,1.5-1.5V29.5 C80.2,28.6,79.5,28,78.7,28z M35.2,20.5c0-8.1,6.6-14.6,14.6-14.6c8.1,0,14.6,6.6,14.6,14.6v7.3l-29.3-0.3 C35.2,27.5,35.2,20.5,35.2,20.5z M77.2,94.1H22.8V30.3l9.3,0.1v4.5c-2.1,0.7-3.6,2.6-3.6,4.9c0,2.9,2.3,5.2,5.2,5.2s5.2-2.3,5.2-5.2 c0-2.4-1.6-4.3-3.8-5v-4.4l29.3,0.3v4.1c-2.1,0.6-3.7,2.6-3.7,4.9c0,2.9,2.3,5.2,5.2,5.2c2.9,0,5.2-2.3,5.2-5.2 c0-2.3-1.6-4.3-3.7-4.9v-4.1l9.7,0.1L77.2,94.1L77.2,94.1z M33.8,37.7c1.2,0,2.2,1,2.2,2.2S35,42,33.8,42s-2.2-1-2.2-2.2 S32.6,37.7,33.8,37.7z M65.9,37.7c1.2,0,2.2,1,2.2,2.2s-1,2.2-2.2,2.2s-2.2-1-2.2-2.2S64.8,37.7,65.9,37.7z"></path> </svg> 